# xmcd
#
# Track frame offsets: 
#        150
#        14616
#        23077
#        40323
#        52184
#        66991
#        78975
#        91393
#        109795
#        121578
#        139727
#        155653
#        174580
#
# Disc length: 2506 seconds
#
# Revision: 0
# Processed by: cddbd v1.5.2PL0 Copyright (c) Steve Scherf et al.
# Submitted via: ExactAudioCopyFreeDBPlugin 1.0
#
DISCID=ac09c80d
DTITLE=James 'JB Blues' Broussard - Nickle's Worth Of Blues
DYEAR=2014
DGENRE=Blues
TTITLE0=A Nickle's Worth Of Blues
TTITLE1=Te-Na-Noo-Na-Noo
TTITLE2=Lonesome Bayou
TTITLE3=Come Home
TTITLE4=Hannah
TTITLE5=Drunk But Dressed Up
TTITLE6=Swamp Blues (Louisiana Blues)
TTITLE7=Sep'Ah'Rate'
TTITLE8=Blues Alley
TTITLE9=Jole' Emma
TTITLE10=Louisiana
TTITLE11=Same Old Blues
TTITLE12=St. James Infirmary
EXTD=
EXTT0=
EXTT1=
EXTT2=
EXTT3=
EXTT4=
EXTT5=
EXTT6=
EXTT7=
EXTT8=
EXTT9=
EXTT10=
EXTT11=
EXTT12=
PLAYORDER=
